<svg width="25" height="24" viewBox="0 0 25 24" fill="none" xmlns="http://www.w3.org/2000/svg">
<g id="Interface Essential Information Circle 1" clip-path="url(#clip0_1_170)">
<g id="Group">
<path id="Vector" d="M23.36 9.1425H24.5V14.8575H23.36V9.1425Z" fill="black" style="fill:black;fill:black;fill-opacity:1;"/>
<path id="Vector_2" d="M22.2125 14.8575H23.36V17.145H22.2125V14.8575Z" fill="black" style="fill:black;fill:black;fill-opacity:1;"/>
<path id="Vector_3" d="M22.2125 6.855H23.36V9.1425H22.2125V6.855Z" fill="black" style="fill:black;fill:black;fill-opacity:1;"/>
<path id="Vector_4" d="M21.0725 17.145H22.2125V19.425H21.0725V17.145Z" fill="black" style="fill:black;fill:black;fill-opacity:1;"/>
<path id="Vector_5" d="M21.0725 4.5675H22.2125V6.855H21.0725V4.5675Z" fill="black" style="fill:black;fill:black;fill-opacity:1;"/>
<path id="Vector_6" d="M19.925 19.425H21.0725V20.5725H19.925V19.425Z" fill="black" style="fill:black;fill:black;fill-opacity:1;"/>
<path id="Vector_7" d="M19.925 3.4275H21.0725V4.5675H19.925V3.4275Z" fill="black" style="fill:black;fill:black;fill-opacity:1;"/>
<path id="Vector_8" d="M17.645 20.5725H19.925V21.7125H17.645V20.5725Z" fill="black" style="fill:black;fill:black;fill-opacity:1;"/>
<path id="Vector_9" d="M17.645 2.2875H19.925V3.4275H17.645V2.2875Z" fill="black" style="fill:black;fill:black;fill-opacity:1;"/>
<path id="Vector_10" d="M15.3575 21.7125H17.645V22.86H15.3575V21.7125Z" fill="black" style="fill:black;fill:black;fill-opacity:1;"/>
<path id="Vector_11" d="M16.4975 17.145H15.3575V11.43H14.2175V10.2825H10.7825V11.43H9.6425V19.425H10.7825V20.5725H16.4975V19.425H17.645V18.285H16.4975V17.145Z" fill="black" style="fill:black;fill:black;fill-opacity:1;"/>
<path id="Vector_12" d="M15.3575 1.14H17.645V2.2875H15.3575V1.14Z" fill="black" style="fill:black;fill:black;fill-opacity:1;"/>
<path id="Vector_13" d="M9.6425 22.86H15.3575V24H9.6425V22.86Z" fill="black" style="fill:black;fill:black;fill-opacity:1;"/>
<path id="Vector_14" d="M10.7825 9.1425H14.2175V8.0025H15.3575V4.5675H14.2175V3.4275H10.7825V4.5675H9.6425V8.0025H10.7825V9.1425Z" fill="black" style="fill:black;fill:black;fill-opacity:1;"/>
<path id="Vector_15" d="M9.6425 0H15.3575V1.14H9.6425V0Z" fill="black" style="fill:black;fill:black;fill-opacity:1;"/>
<path id="Vector_16" d="M7.355 21.7125H9.6425V22.86H7.355V21.7125Z" fill="black" style="fill:black;fill:black;fill-opacity:1;"/>
<path id="Vector_17" d="M7.355 1.14H9.6425V2.2875H7.355V1.14Z" fill="black" style="fill:black;fill:black;fill-opacity:1;"/>
<path id="Vector_18" d="M5.0675 20.5725H7.355V21.7125H5.0675V20.5725Z" fill="black" style="fill:black;fill:black;fill-opacity:1;"/>
<path id="Vector_19" d="M5.0675 2.2875H7.355V3.4275H5.0675V2.2875Z" fill="black" style="fill:black;fill:black;fill-opacity:1;"/>
<path id="Vector_20" d="M3.9275 19.425H5.0675V20.5725H3.9275V19.425Z" fill="black" style="fill:black;fill:black;fill-opacity:1;"/>
<path id="Vector_21" d="M3.9275 3.4275H5.0675V4.5675H3.9275V3.4275Z" fill="black" style="fill:black;fill:black;fill-opacity:1;"/>
<path id="Vector_22" d="M2.7875 17.145H3.9275V19.425H2.7875V17.145Z" fill="black" style="fill:black;fill:black;fill-opacity:1;"/>
<path id="Vector_23" d="M2.7875 4.5675H3.9275V6.855H2.7875V4.5675Z" fill="black" style="fill:black;fill:black;fill-opacity:1;"/>
<path id="Vector_24" d="M1.64 14.8575H2.7875V17.145H1.64V14.8575Z" fill="black" style="fill:black;fill:black;fill-opacity:1;"/>
<path id="Vector_25" d="M1.64 6.855H2.7875V9.1425H1.64V6.855Z" fill="black" style="fill:black;fill:black;fill-opacity:1;"/>
<path id="Vector_26" d="M0.5 9.1425H1.64V14.8575H0.5V9.1425Z" fill="black" style="fill:black;fill:black;fill-opacity:1;"/>
</g>
</g>
<defs>
<clipPath id="clip0_1_170">
<rect width="24" height="24" fill="white" style="fill:white;fill:white;fill-opacity:1;" transform="translate(0.5)"/>
</clipPath>
</defs>
</svg>
